<svg width="22" height="19" viewBox="0 0 22 19" fill="none" xmlns="http://www.w3.org/2000/svg">
<path d="M17.5681 6.00583C17.9699 5.90537 18.3771 6.14969 18.4776 6.55153C18.5781 6.95338 18.3337 7.36058 17.9319 7.46104L13.9319 8.46104C13.5301 8.5615 13.1229 8.31718 13.0224 7.91534C12.9219 7.51349 13.1663 7.10629 13.5681 7.00583L17.5681 6.00583Z" fill="#474747"/>
<path d="M17.5681 10.0058C17.9699 9.90536 18.3771 10.1497 18.4776 10.5515C18.5781 10.9534 18.3337 11.3606 17.9319 11.461L13.9319 12.461C13.5301 12.5615 13.1229 12.3172 13.0224 11.9153C12.9219 11.5135 13.1663 11.1063 13.5681 11.0058L17.5681 10.0058Z" fill="#474747"/>
<path d="M3.02239 6.55153C3.12285 6.14969 3.53006 5.90537 3.9319 6.00583L7.9319 7.00583C8.33375 7.10629 8.57807 7.51349 8.47761 7.91534C8.37715 8.31718 7.96994 8.5615 7.5681 8.46104L3.5681 7.46104C3.16625 7.36058 2.92193 6.95338 3.02239 6.55153Z" fill="#474747"/>
<path d="M3.02239 10.5515C3.12285 10.1497 3.53006 9.90536 3.9319 10.0058L7.9319 11.0058C8.33375 11.1063 8.57807 11.5135 8.47761 11.9153C8.37715 12.3172 7.96994 12.5615 7.5681 12.461L3.5681 11.461C3.16625 11.3606 2.92193 10.9534 3.02239 10.5515Z" fill="#474747"/>
<path fill-rule="evenodd" clip-rule="evenodd" d="M21.5 2.66663C21.5 1.20332 20.3347 -0.0516186 18.8059 0.00163529C17.6675 0.041287 16.1796 0.159703 15.0349 0.502384C14.0399 0.800272 12.9206 1.38211 12.0482 1.88706C11.2301 2.36052 10.2117 2.38414 9.38284 1.94588C8.38736 1.41949 7.07766 0.795548 5.94136 0.495701C4.98055 0.242161 3.76517 0.120381 2.77841 0.0597348C1.22017 -0.0360348 0 1.23208 0 2.73124V13.877C0 15.4132 1.24378 16.6126 2.71804 16.7048C3.6768 16.7648 4.75566 16.8801 5.55864 17.092C6.5512 17.3539 7.7786 17.9363 8.76962 18.4645C10.0029 19.1219 11.4971 19.1219 12.7304 18.4645C13.7214 17.9363 14.9488 17.3539 15.9414 17.092C16.7443 16.8801 17.8232 16.7648 18.782 16.7048C20.2562 16.6126 21.5 15.4132 21.5 13.877V2.66663ZM18.8581 1.50073C19.4729 1.47931 20 1.98504 20 2.66663V13.877C20 14.5628 19.4317 15.1612 18.6883 15.2077C17.7082 15.269 16.5091 15.3908 15.5586 15.6416C14.3883 15.9504 13.0327 16.6035 12.0248 17.1408C11.8565 17.2305 11.6805 17.3012 11.5 17.3528V3.67547C11.9523 3.58493 12.3921 3.42111 12.7995 3.18531C13.65 2.69312 14.6449 2.18492 15.4651 1.93937C16.4143 1.65522 17.7392 1.5397 18.8581 1.50073ZM10 3.70841C9.54499 3.63766 9.09899 3.49258 8.68167 3.27191C7.70486 2.75539 6.52076 2.19994 5.55864 1.94605C4.74643 1.73173 3.65238 1.61628 2.68639 1.55691C2.05243 1.51795 1.5 2.03405 1.5 2.73124V13.877C1.5 14.5628 2.06831 15.1612 2.81168 15.2077C3.79176 15.269 4.99092 15.3908 5.94136 15.6416C7.1117 15.9504 8.46727 16.6035 9.47521 17.1408C9.64346 17.2305 9.81949 17.3012 10 17.3528V3.70841Z" fill="#474747"/>
</svg>
