<svg width="18" height="18" viewBox="0 0 18 18" fill="none" xmlns="http://www.w3.org/2000/svg">
<path d="M4.79167 5C5.13685 5 5.41667 5.27982 5.41667 5.625L5.41667 12.2917C5.41667 12.6368 5.13685 12.9167 4.79167 12.9167C4.44649 12.9167 4.16667 12.6368 4.16667 12.2917L4.16667 5.625C4.16667 5.27982 4.44649 5 4.79167 5Z" fill="#5E5E5E"/>
<path d="M13.75 8.95833C13.75 9.30351 13.4702 9.58333 13.125 9.58333H8.80055L10.2336 11.0164C10.4777 11.2605 10.4777 11.6562 10.2336 11.9003C9.98953 12.1444 9.5938 12.1444 9.34973 11.9003L6.84973 9.40028C6.73251 9.28307 6.66667 9.12409 6.66667 8.95833C6.66667 8.79257 6.73251 8.6336 6.84973 8.51639L9.34972 6.01639C9.5938 5.77231 9.98953 5.77231 10.2336 6.01639C10.4777 6.26047 10.4777 6.6562 10.2336 6.90028L8.80055 8.33333H13.125C13.4702 8.33333 13.75 8.61316 13.75 8.95833Z" fill="#5E5E5E"/>
<path fill-rule="evenodd" clip-rule="evenodd" d="M8.91052 1.76283e-07C6.98686 -1.05526e-05 5.47933 -1.90487e-05 4.30309 0.158122C3.09914 0.319989 2.14912 0.657772 1.40345 1.40345C0.657772 2.14912 0.319989 3.09914 0.158122 4.30309C-1.90487e-05 5.47933 -1.05526e-05 6.98686 1.76283e-07 8.91052V9.00615C-1.05526e-05 10.9298 -1.90487e-05 12.4373 0.158122 13.6136C0.319989 14.8175 0.657772 15.7675 1.40345 16.5132C2.14912 17.2589 3.09914 17.5967 4.30309 17.7585C5.47933 17.9167 6.98686 17.9167 8.91052 17.9167H9.00614C10.9298 17.9167 12.4373 17.9167 13.6136 17.7585C14.8175 17.5967 15.7675 17.2589 16.5132 16.5132C17.2589 15.7675 17.5967 14.8175 17.7585 13.6136C17.9167 12.4373 17.9167 10.9298 17.9167 9.00614V8.91052C17.9167 6.98686 17.9167 5.47933 17.7585 4.30309C17.5967 3.09914 17.2589 2.14912 16.5132 1.40345C15.7675 0.657772 14.8175 0.319989 13.6136 0.158122C12.4373 -1.90487e-05 10.9298 -1.05526e-05 9.00615 1.76283e-07H8.91052ZM2.28733 2.28733C2.76204 1.81262 3.40431 1.54021 4.46965 1.39698C5.55296 1.25133 6.97648 1.25 8.95833 1.25C10.9402 1.25 12.3637 1.25133 13.447 1.39698C14.5124 1.54021 15.1546 1.81262 15.6293 2.28733C16.104 2.76204 16.3765 3.40431 16.5197 4.46965C16.6653 5.55296 16.6667 6.97648 16.6667 8.95833C16.6667 10.9402 16.6653 12.3637 16.5197 13.447C16.3765 14.5124 16.104 15.1546 15.6293 15.6293C15.1546 16.104 14.5124 16.3765 13.447 16.5197C12.3637 16.6653 10.9402 16.6667 8.95833 16.6667C6.97648 16.6667 5.55296 16.6653 4.46965 16.5197C3.40431 16.3765 2.76204 16.104 2.28733 15.6293C1.81262 15.1546 1.54021 14.5124 1.39698 13.447C1.25133 12.3637 1.25 10.9402 1.25 8.95833C1.25 6.97648 1.25133 5.55296 1.39698 4.46965C1.54021 3.40431 1.81262 2.76204 2.28733 2.28733Z" fill="#5E5E5E"/>
<path d="M4.79167 5C5.13685 5 5.41667 5.27982 5.41667 5.625L5.41667 12.2917C5.41667 12.6368 5.13685 12.9167 4.79167 12.9167C4.44649 12.9167 4.16667 12.6368 4.16667 12.2917L4.16667 5.625C4.16667 5.27982 4.44649 5 4.79167 5Z" stroke="#5E5E5E"/>
<path d="M13.75 8.95833C13.75 9.30351 13.4702 9.58333 13.125 9.58333H8.80055L10.2336 11.0164C10.4777 11.2605 10.4777 11.6562 10.2336 11.9003C9.98953 12.1444 9.5938 12.1444 9.34973 11.9003L6.84973 9.40028C6.73251 9.28307 6.66667 9.12409 6.66667 8.95833C6.66667 8.79257 6.73251 8.6336 6.84973 8.51639L9.34972 6.01639C9.5938 5.77231 9.98953 5.77231 10.2336 6.01639C10.4777 6.26047 10.4777 6.6562 10.2336 6.90028L8.80055 8.33333H13.125C13.4702 8.33333 13.75 8.61316 13.75 8.95833Z" stroke="#5E5E5E"/>
<path fill-rule="evenodd" clip-rule="evenodd" d="M8.91052 1.76283e-07C6.98686 -1.05526e-05 5.47933 -1.90487e-05 4.30309 0.158122C3.09914 0.319989 2.14912 0.657772 1.40345 1.40345C0.657772 2.14912 0.319989 3.09914 0.158122 4.30309C-1.90487e-05 5.47933 -1.05526e-05 6.98686 1.76283e-07 8.91052V9.00615C-1.05526e-05 10.9298 -1.90487e-05 12.4373 0.158122 13.6136C0.319989 14.8175 0.657772 15.7675 1.40345 16.5132C2.14912 17.2589 3.09914 17.5967 4.30309 17.7585C5.47933 17.9167 6.98686 17.9167 8.91052 17.9167H9.00614C10.9298 17.9167 12.4373 17.9167 13.6136 17.7585C14.8175 17.5967 15.7675 17.2589 16.5132 16.5132C17.2589 15.7675 17.5967 14.8175 17.7585 13.6136C17.9167 12.4373 17.9167 10.9298 17.9167 9.00614V8.91052C17.9167 6.98686 17.9167 5.47933 17.7585 4.30309C17.5967 3.09914 17.2589 2.14912 16.5132 1.40345C15.7675 0.657772 14.8175 0.319989 13.6136 0.158122C12.4373 -1.90487e-05 10.9298 -1.05526e-05 9.00615 1.76283e-07H8.91052ZM2.28733 2.28733C2.76204 1.81262 3.40431 1.54021 4.46965 1.39698C5.55296 1.25133 6.97648 1.25 8.95833 1.25C10.9402 1.25 12.3637 1.25133 13.447 1.39698C14.5124 1.54021 15.1546 1.81262 15.6293 2.28733C16.104 2.76204 16.3765 3.40431 16.5197 4.46965C16.6653 5.55296 16.6667 6.97648 16.6667 8.95833C16.6667 10.9402 16.6653 12.3637 16.5197 13.447C16.3765 14.5124 16.104 15.1546 15.6293 15.6293C15.1546 16.104 14.5124 16.3765 13.447 16.5197C12.3637 16.6653 10.9402 16.6667 8.95833 16.6667C6.97648 16.6667 5.55296 16.6653 4.46965 16.5197C3.40431 16.3765 2.76204 16.104 2.28733 15.6293C1.81262 15.1546 1.54021 14.5124 1.39698 13.447C1.25133 12.3637 1.25 10.9402 1.25 8.95833C1.25 6.97648 1.25133 5.55296 1.39698 4.46965C1.54021 3.40431 1.81262 2.76204 2.28733 2.28733Z" stroke="#5E5E5E"/>
</svg>
