<svg width="20" height="20" viewBox="0 0 20 20" fill="none" xmlns="http://www.w3.org/2000/svg">
<path d="M7.38867 0.290039C8.82562 -0.0686415 10.3256 -0.09459 11.7744 0.212891C13.223 0.520375 14.5827 1.15319 15.75 2.06445C16.9174 2.97588 17.862 4.14174 18.5117 5.47266C19.1614 6.80355 19.4994 8.26508 19.5 9.74609C19.5004 11.4292 19.0651 13.0839 18.2363 14.5488C17.4075 16.0138 16.2134 17.2398 14.7705 18.1064C13.3275 18.9731 11.6837 19.4517 10.001 19.4951C8.31856 19.5384 6.65352 19.1454 5.16797 18.3545L1.97559 19.418C1.71129 19.5061 1.42741 19.5191 1.15625 19.4551C0.885119 19.3911 0.637423 19.2526 0.44043 19.0557C0.243455 18.8587 0.105019 18.611 0.0410156 18.3398C-0.0229753 18.0687 -0.0100144 17.7848 0.078125 17.5205L1.1416 14.3281C0.446251 13.0206 0.0577913 11.5718 0.00585938 10.0918C-0.0460569 8.61175 0.23973 7.13919 0.841797 5.78613C1.44392 4.433 2.34712 3.2345 3.48145 2.28223C4.61568 1.33013 5.95188 0.648687 7.38867 0.290039ZM11.3564 1.65625C10.1152 1.40984 8.83352 1.4523 7.61133 1.78027C6.38923 2.10829 5.25864 2.71317 4.30762 3.54785C3.35659 4.3826 2.61072 5.42544 2.12695 6.59473C1.64321 7.76405 1.43426 9.0293 1.51758 10.292C1.60096 11.5546 1.97424 12.7814 2.60742 13.877C2.66045 13.9688 2.69345 14.0712 2.7041 14.1768C2.71473 14.2824 2.70262 14.3896 2.66895 14.4902L1.5 17.9961L5.00586 16.8271C5.08214 16.8011 5.16257 16.7872 5.24316 16.7871C5.37478 16.7873 5.50429 16.8227 5.61816 16.8887C6.87235 17.6143 8.29614 17.9971 9.74512 17.998C11.1939 17.9989 12.6171 17.6175 13.8721 16.8936C15.1272 16.1695 16.17 15.1279 16.8945 13.873C17.619 12.6183 18.0003 11.195 18 9.74609C17.9996 8.48077 17.7083 7.23235 17.1484 6.09766C16.5884 4.96285 15.7747 3.97123 14.7705 3.20117C13.7663 2.43111 12.5977 1.9027 11.3564 1.65625ZM12.75 10.4961C12.9489 10.4961 13.1396 10.5752 13.2803 10.7158C13.4209 10.8565 13.5 11.0472 13.5 11.2461C13.5 11.445 13.4209 11.6357 13.2803 11.7764C13.1396 11.917 12.9489 11.9961 12.75 11.9961H6.75C6.55111 11.9961 6.36037 11.917 6.21973 11.7764C6.0791 11.6357 6.00002 11.445 6 11.2461C6 11.0472 6.0791 10.8565 6.21973 10.7158C6.36038 10.5752 6.55109 10.4961 6.75 10.4961H12.75ZM12.75 7.49609C12.9489 7.49609 13.1396 7.57517 13.2803 7.71582C13.4209 7.85647 13.5 8.0472 13.5 8.24609C13.5 8.44497 13.4209 8.63574 13.2803 8.77637C13.1396 8.91699 12.9489 8.99609 12.75 8.99609H6.75C6.55111 8.99609 6.36037 8.91699 6.21973 8.77637C6.0791 8.63574 6.00002 8.44497 6 8.24609C6 8.0472 6.0791 7.85647 6.21973 7.71582C6.36038 7.57517 6.55109 7.49609 6.75 7.49609H12.75Z" fill="white"/>
<path d="M7.38867 0.290039C8.82562 -0.0686415 10.3256 -0.09459 11.7744 0.212891C13.223 0.520375 14.5827 1.15319 15.75 2.06445C16.9174 2.97588 17.862 4.14174 18.5117 5.47266C19.1614 6.80355 19.4994 8.26508 19.5 9.74609C19.5004 11.4292 19.0651 13.0839 18.2363 14.5488C17.4075 16.0138 16.2134 17.2398 14.7705 18.1064C13.3275 18.9731 11.6837 19.4517 10.001 19.4951C8.31856 19.5384 6.65352 19.1454 5.16797 18.3545L1.97559 19.418C1.71129 19.5061 1.42741 19.5191 1.15625 19.4551C0.885119 19.3911 0.637423 19.2526 0.44043 19.0557C0.243455 18.8587 0.105019 18.611 0.0410156 18.3398C-0.0229753 18.0687 -0.0100144 17.7848 0.078125 17.5205L1.1416 14.3281C0.446251 13.0206 0.0577913 11.5718 0.00585938 10.0918C-0.0460569 8.61175 0.23973 7.13919 0.841797 5.78613C1.44392 4.433 2.34712 3.2345 3.48145 2.28223C4.61568 1.33013 5.95188 0.648687 7.38867 0.290039ZM11.3564 1.65625C10.1152 1.40984 8.83352 1.4523 7.61133 1.78027C6.38923 2.10829 5.25864 2.71317 4.30762 3.54785C3.35659 4.3826 2.61072 5.42544 2.12695 6.59473C1.64321 7.76405 1.43426 9.0293 1.51758 10.292C1.60096 11.5546 1.97424 12.7814 2.60742 13.877C2.66045 13.9688 2.69345 14.0712 2.7041 14.1768C2.71473 14.2824 2.70262 14.3896 2.66895 14.4902L1.5 17.9961L5.00586 16.8271C5.08214 16.8011 5.16257 16.7872 5.24316 16.7871C5.37478 16.7873 5.50429 16.8227 5.61816 16.8887C6.87235 17.6143 8.29614 17.9971 9.74512 17.998C11.1939 17.9989 12.6171 17.6175 13.8721 16.8936C15.1272 16.1695 16.17 15.1279 16.8945 13.873C17.619 12.6183 18.0003 11.195 18 9.74609C17.9996 8.48077 17.7083 7.23235 17.1484 6.09766C16.5884 4.96285 15.7747 3.97123 14.7705 3.20117C13.7663 2.43111 12.5977 1.9027 11.3564 1.65625ZM12.75 10.4961C12.9489 10.4961 13.1396 10.5752 13.2803 10.7158C13.4209 10.8565 13.5 11.0472 13.5 11.2461C13.5 11.445 13.4209 11.6357 13.2803 11.7764C13.1396 11.917 12.9489 11.9961 12.75 11.9961H6.75C6.55111 11.9961 6.36037 11.917 6.21973 11.7764C6.0791 11.6357 6.00002 11.445 6 11.2461C6 11.0472 6.0791 10.8565 6.21973 10.7158C6.36038 10.5752 6.55109 10.4961 6.75 10.4961H12.75ZM12.75 7.49609C12.9489 7.49609 13.1396 7.57517 13.2803 7.71582C13.4209 7.85647 13.5 8.0472 13.5 8.24609C13.5 8.44497 13.4209 8.63574 13.2803 8.77637C13.1396 8.91699 12.9489 8.99609 12.75 8.99609H6.75C6.55111 8.99609 6.36037 8.91699 6.21973 8.77637C6.0791 8.63574 6.00002 8.44497 6 8.24609C6 8.0472 6.0791 7.85647 6.21973 7.71582C6.36038 7.57517 6.55109 7.49609 6.75 7.49609H12.75Z" stroke="white"/>
</svg>
