<svg width="22" height="22" viewBox="0 0 22 22" fill="none" xmlns="http://www.w3.org/2000/svg">
<path fill-rule="evenodd" clip-rule="evenodd" d="M4.00013 4.75C4.00013 2.12665 6.12678 0 8.75013 0C11.3735 0 13.5001 2.12665 13.5001 4.75C13.5001 7.37335 11.3735 9.5 8.75013 9.5C6.12678 9.5 4.00013 7.37335 4.00013 4.75ZM8.75013 1.5C6.95521 1.5 5.50013 2.95507 5.50013 4.75C5.50013 6.54493 6.95521 8 8.75013 8C10.5451 8 12.0001 6.54493 12.0001 4.75C12.0001 2.95507 10.5451 1.5 8.75013 1.5Z" fill="#7047EB"/>
<path fill-rule="evenodd" clip-rule="evenodd" d="M2.72558 12.4143C4.30506 11.5259 6.43658 11 8.75013 11C11.0637 11 13.1952 11.5259 14.7747 12.4143C16.3307 13.2896 17.5001 14.6161 17.5001 16.25L17.5002 16.352C17.5013 17.5138 17.5027 18.972 16.2237 20.0135C15.5943 20.5261 14.7137 20.8906 13.5239 21.1315C12.3309 21.3729 10.7759 21.5 8.75013 21.5C6.72436 21.5 5.1694 21.3729 3.97634 21.1315C2.78661 20.8906 1.90602 20.5261 1.27655 20.0135C-0.00247979 18.972 -0.00106187 17.5138 6.78762e-05 16.352L0.000134216 16.25C0.000134216 14.6161 1.16962 13.2896 2.72558 12.4143ZM3.46098 13.7217C2.12151 14.4751 1.50013 15.3987 1.50013 16.25C1.50013 17.5578 1.54045 18.294 2.22372 18.8504C2.59425 19.1522 3.21366 19.4467 4.27393 19.6613C5.33087 19.8752 6.77591 20 8.75013 20C10.7244 20 12.1694 19.8752 13.2263 19.6613C14.2866 19.4467 14.906 19.1522 15.2765 18.8504C15.9598 18.294 16.0001 17.5578 16.0001 16.25C16.0001 15.3987 15.3788 14.4751 14.0393 13.7217C12.7233 12.9815 10.8549 12.5 8.75013 12.5C6.64541 12.5 4.77693 12.9815 3.46098 13.7217Z" fill="#7047EB"/>
<path fill-rule="evenodd" clip-rule="evenodd" d="M15.4404 6.19694C16.161 5.87802 16.998 5.93847 17.7501 6.42889C18.5023 5.93847 19.3392 5.87802 20.0599 6.19694C20.9149 6.57533 21.5001 7.44929 21.5001 8.44973C21.5001 9.3981 21.0859 10.112 20.5896 10.6531C20.2022 11.0754 19.723 11.432 19.3446 11.7136C19.2633 11.7741 19.1867 11.8312 19.1166 11.8847L19.1146 11.8862C18.9659 11.9997 18.7736 12.1465 18.5709 12.2611C18.3669 12.3765 18.0845 12.5 17.7501 12.5C17.4158 12.5 17.1334 12.3765 16.9294 12.2611C16.7267 12.1465 16.5343 11.9997 16.3856 11.8862L16.3836 11.8847C16.3136 11.8312 16.237 11.7742 16.1558 11.7138C15.7774 11.4321 15.2981 11.0754 14.9107 10.6531C14.4144 10.112 14.0001 9.3981 14.0001 8.44973C14.0001 7.44929 14.5853 6.57533 15.4404 6.19694ZM15.5001 8.44973C15.5001 8.03775 15.74 7.70469 16.0474 7.56862C16.3137 7.4508 16.7375 7.43874 17.2183 7.92232C17.359 8.06392 17.5505 8.14354 17.7501 8.14354C17.9498 8.14354 18.1412 8.06392 18.282 7.92232C18.7628 7.43874 19.1866 7.4508 19.4529 7.56862C19.7603 7.70469 20.0001 8.03775 20.0001 8.44973C20.0001 8.91375 19.8114 9.28238 19.4842 9.63913C19.2022 9.94657 18.8658 10.198 18.4939 10.4759C18.4003 10.5459 18.3044 10.6176 18.2066 10.6923C18.0441 10.8163 17.9315 10.8995 17.8323 10.9556C17.7922 10.9783 17.7655 10.9899 17.7501 10.9956C17.7348 10.9899 17.7081 10.9783 17.668 10.9556C17.5688 10.8995 17.4562 10.8163 17.2937 10.6923C17.1959 10.6176 17.1 10.546 17.0064 10.476C16.6345 10.198 16.2981 9.94657 16.0161 9.63913C15.6888 9.28238 15.5001 8.91375 15.5001 8.44973Z" fill="#7047EB"/>
</svg>
